<?xml version="1.0" encoding="UTF-8" standalone="no"?>
<!DOCTYPE svg PUBLIC "-//W3C//DTD SVG 1.1//EN" "http://www.w3.org/Graphics/SVG/1.1/DTD/svg11.dtd">
<svg width="100%" height="100%" viewBox="0 0 60 24" version="1.1" xmlns="http://www.w3.org/2000/svg" xmlns:xlink="http://www.w3.org/1999/xlink" xml:space="preserve" xmlns:serif="http://www.serif.com/" style="fill-rule:evenodd;clip-rule:evenodd;stroke-linejoin:round;stroke-miterlimit:2;">
    <g transform="matrix(1,0,0,1,0.0934997,0.178251)">
        <path d="M12,0C5.374,0 0,5.373 0,12C0,17.302 3.438,21.8 8.207,23.387C8.806,23.498 9,23.126 9,22.81L9,20.576C5.662,21.302 4.967,19.16 4.967,19.16C4.421,17.773 3.634,17.404 3.634,17.404C2.545,16.659 3.717,16.675 3.717,16.675C4.922,16.759 5.556,17.912 5.556,17.912C6.626,19.746 8.363,19.216 9.048,18.909C9.155,18.134 9.466,17.604 9.81,17.305C7.145,17 4.343,15.971 4.343,11.374C4.343,10.063 4.812,8.993 5.579,8.153C5.455,7.85 5.044,6.629 5.696,4.977C5.696,4.977 6.704,4.655 8.997,6.207C9.954,5.941 10.98,5.808 12,5.803C13.02,5.808 14.047,5.941 15.006,6.207C17.297,4.655 18.303,4.977 18.303,4.977C18.956,6.63 18.545,7.851 18.421,8.153C19.191,8.993 19.656,10.064 19.656,11.374C19.656,15.983 16.849,16.998 14.177,17.295C14.607,17.667 15,18.397 15,19.517L15,22.81C15,23.129 15.192,23.504 15.801,23.386C20.566,21.797 24,17.3 24,12C24,5.373 18.627,0 12,0Z" style="fill-rule:nonzero;"/>
    </g>
    <g transform="matrix(1,0,0,1,35.8605,0.0809312)">
        <path d="M24,4.557C23.117,4.949 22.168,5.213 21.172,5.332C22.189,4.723 22.97,3.758 23.337,2.608C22.386,3.172 21.332,3.582 20.21,3.803C19.313,2.846 18.032,2.248 16.616,2.248C13.437,2.248 11.101,5.214 11.819,8.293C7.728,8.088 4.1,6.128 1.671,3.149C0.381,5.362 1.002,8.257 3.194,9.723C2.388,9.697 1.628,9.476 0.965,9.107C0.911,11.388 2.546,13.522 4.914,13.997C4.221,14.185 3.462,14.229 2.69,14.081C3.316,16.037 5.134,17.46 7.29,17.5C5.22,19.123 2.612,19.848 0,19.54C2.179,20.937 4.768,21.752 7.548,21.752C16.69,21.752 21.855,14.031 21.543,7.106C22.505,6.411 23.34,5.544 24,4.557Z" style="fill-rule:nonzero;"/>
    </g>
</svg>
